<svg xmlns="http://www.w3.org/2000/svg" fill-rule="evenodd" stroke-linejoin="round" stroke-miterlimit="2" clip-rule="evenodd" viewBox="0 0 32 32" id="lance"><path fill="url(#a)" d="m7.828 19.929-4.242 4.243a2 2 0 0 0 0 2.828L5 28.414a2 2 0 0 0 2.828 0l4.243-4.242 2.121 2.121a1 1 0 0 0 1.707-.702s.008-1.944.239-3.373c.063-.387.23-.903.246-.952C24.94 11.28 28.501 4.858 28.501 4.858a.998.998 0 0 0-1.359-1.359S20.72 7.06 10.734 15.616a7.708 7.708 0 0 1-.952.246c-1.429.231-3.373.239-3.373.239a1 1 0 0 0-.702 1.707l2.121 2.121Zm1.414 1.414L5 25.586 6.414 27l4.243-4.242-1.415-1.415Zm7.159-7.823a163.138 163.138 0 0 0-4.386 3.633c-.327.28-1.042.542-1.914.683-.435.07-.913.122-1.377.16h-.001l5.281 5.28c.038-.464.09-.942.16-1.377.141-.872.403-1.587.683-1.914a160.18 160.18 0 0 0 3.614-4.364c-.946-.409-1.632-1.111-2.06-2.101Zm3.378.428a122.023 122.023 0 0 0 4.626-6.352 120.805 120.805 0 0 0-6.342 4.616c.258.93.814 1.526 1.716 1.736Z"></path><defs><linearGradient id="a" x1="0" x2="1" y1="0" y2="0" gradientTransform="matrix(26 26 -26 26 3 3)" gradientUnits="userSpaceOnUse"><stop offset="0" stop-color="#f78cff"></stop><stop offset="1" stop-color="#6dc8ff"></stop></linearGradient></defs></svg>